<svg xmlns="http://www.w3.org/2000/svg" data-name="Layer 2" viewBox="0 0 279.8 100">
  <defs>
    <linearGradient id="a" x1="35.53" x2="75.78" y1="99.35" y2="7.49" gradientUnits="userSpaceOnUse">
      <stop offset="0" stop-color="#a5b4fc"/>
      <stop offset=".09" stop-color="#949ff3"/>
      <stop offset=".27" stop-color="#777ae4"/>
      <stop offset=".46" stop-color="#605dd9"/>
      <stop offset=".64" stop-color="#5048d0"/>
      <stop offset=".83" stop-color="#463ccb"/>
      <stop offset="1" stop-color="#4338ca"/>
    </linearGradient>
    <linearGradient id="b" x1="247.07" x2="292.12" y1="-584.52" y2="-679.38" gradientTransform="matrix(.84299 -.36847 .35245 .80634 83.55 654.93)" gradientUnits="userSpaceOnUse">
      <stop offset="0" stop-color="#4338ca"/>
      <stop offset=".17" stop-color="#463ccb"/>
      <stop offset=".36" stop-color="#5048d0"/>
      <stop offset=".54" stop-color="#605dd9"/>
      <stop offset=".73" stop-color="#777ae4"/>
      <stop offset=".91" stop-color="#949ff3"/>
      <stop offset="1" stop-color="#a5b4fc"/>
    </linearGradient>
  </defs>
  <path fill="url(#a)" d="m80.26 96.14-8.6-22.61a2.818 2.818 0 0 0-2.52-1.82c-.03 0-.06-.01-.09-.01H39.98l21-48.12c9.19-21.41-.18-18.3-8.63-21.99-1.09-.48-2.2-.82-3.32-1.05-7.57-1.56-15.45 2.32-18.67 9.69L1.4 76.61c-3.69 8.46.18 18.3 8.63 21.99 2.28.99 4.65 1.43 6.98 1.39s44.23 0 44.23 0H77.6c1.99 0 3.37-2 2.66-3.86Z"/>
  <path fill="url(#b)" d="M69.76 0 45.63.19C55.51.15 60.15 10.2 63.49 20.48l30.74 77.55a2.863 2.863 0 0 0 2.65 1.81l29.01.06c2.04 0 3.42-2.08 2.62-3.97l-36.4-85.84C88.4 1.61 78.51.02 69.76 0Z"/>
  <path className="fill-gray-50" d="m156.41 48.57 10.73-24.02c.75-1.66 2.11-2.66 3.96-2.66h.4c1.85 0 3.17 1 3.92 2.66l10.73 24.02c.22.48.35.92.35 1.35 0 1.79-1.41 3.23-3.21 3.23-1.58 0-2.64-.92-3.26-2.31l-2.07-4.8h-13.55l-2.16 5.01c-.57 1.31-1.72 2.09-3.12 2.09-1.76 0-3.12-1.4-3.12-3.14 0-.48.18-.96.4-1.44Zm19.05-8.46-4.27-10.07-4.27 10.07h8.53Zm12.14-2.4v-.09c0-8.68 6.6-15.78 16.06-15.78 4.62 0 7.74 1.22 10.29 3.09.7.52 1.32 1.48 1.32 2.66 0 1.83-1.5 3.27-3.34 3.27-.92 0-1.54-.35-2.02-.65-1.89-1.4-3.87-2.18-6.29-2.18-5.19 0-8.93 4.27-8.93 9.5v.09c0 5.23 3.65 9.59 8.93 9.59 2.86 0 4.75-.87 6.69-2.4a3.16 3.16 0 0 1 2.02-.74c1.72 0 3.17 1.39 3.17 3.09 0 1.05-.53 1.88-1.14 2.4-2.77 2.4-6.03 3.84-10.95 3.84-9.06 0-15.79-6.93-15.79-15.69Zm32.07-12.16c0-1.87 1.5-3.36 3.39-3.36h.75c1.45 0 2.46.74 3.08 1.74l8.18 13.21 8.23-13.25c.7-1.13 1.67-1.7 3.04-1.7h.75c1.89 0 3.39 1.48 3.39 3.36v24.24c0 1.87-1.5 3.36-3.39 3.36s-3.34-1.53-3.34-3.36V34.58l-5.94 9.07c-.7 1.05-1.58 1.7-2.82 1.7s-2.11-.65-2.82-1.7l-5.85-8.94v15.17c0 1.83-1.5 3.27-3.34 3.27s-3.3-1.44-3.3-3.27V25.55Zm36.42 23.97v-23.8c0-1.88 1.5-3.36 3.39-3.36h17.07c1.67 0 3.04 1.35 3.04 3.01s-1.36 2.96-3.04 2.96h-13.73v6.19h11.75c1.67 0 3.04 1.35 3.04 3.01s-1.36 2.96-3.04 2.96h-11.75v6.41h13.95c1.67 0 3.04 1.35 3.04 3.01s-1.36 2.96-3.04 2.96h-17.29c-1.89 0-3.39-1.48-3.39-3.36Z"/>
  <path className="fill-gray-400 dark:fill-gray-50" d="M156.01 69.59v-.05c0-4.74 3.55-8.61 8.59-8.61 3.07 0 4.93 1.07 6.52 2.59l-1.88 2.17c-1.33-1.24-2.76-2.07-4.66-2.07-3.16 0-5.5 2.62-5.5 5.88v.05c0 3.26 2.31 5.9 5.5 5.9 2.05 0 3.35-.81 4.78-2.14l1.88 1.9c-1.74 1.81-3.64 2.95-6.76 2.95-4.85 0-8.47-3.78-8.47-8.57Zm34.68 0v-.05c0-4.69 3.62-8.61 8.73-8.61s8.68 3.88 8.68 8.57v.05c0 4.69-3.62 8.61-8.73 8.61s-8.68-3.88-8.68-8.57Zm14.35 0v-.05c0-3.24-2.36-5.92-5.66-5.92s-5.62 2.64-5.62 5.88v.05c0 3.24 2.36 5.9 5.66 5.9s5.62-2.62 5.62-5.85Zm24.69-8.37h7.42c2.09 0 3.74.62 4.81 1.67.88.9 1.38 2.14 1.38 3.59v.05c0 2.74-1.64 4.38-3.95 5.04l4.5 6.31h-3.47l-4.09-5.81h-3.66v5.81h-2.93V61.23Zm7.21 8.26c2.09 0 3.43-1.09 3.43-2.78v-.05c0-1.78-1.28-2.76-3.45-2.76h-4.26v5.59h4.28Zm29.97-8.26h6.57c3.9 0 6.33 2.21 6.33 5.57v.05c0 3.74-3 5.69-6.66 5.69h-3.31v5.35h-2.93V61.23Zm6.33 8.66c2.21 0 3.59-1.24 3.59-2.98v-.05c0-1.95-1.4-2.97-3.59-2.97h-3.4v6h3.4Z"/>
</svg>
