<svg xmlns="http://www.w3.org/2000/svg" data-name="Layer 2" viewBox="0 0 118.79 132.91">
  <defs>
    <linearGradient id="a" x1="41.65" x2="66.41" y1="61.11" y2="4.61" gradientUnits="userSpaceOnUse">
      <stop offset="0" stop-color="#a5b4fc"/>
      <stop offset=".09" stop-color="#949ff3"/>
      <stop offset=".27" stop-color="#777ae4"/>
      <stop offset=".46" stop-color="#605dd9"/>
      <stop offset=".64" stop-color="#5048d0"/>
      <stop offset=".83" stop-color="#463ccb"/>
      <stop offset="1" stop-color="#4338ca"/>
    </linearGradient>
    <linearGradient id="b" x1="258.95" x2="286.66" y1="-441.37" y2="-499.73" gradientTransform="matrix(.84299 -.36847 .35245 .80634 9.91 508.52)" gradientUnits="userSpaceOnUse">
      <stop offset="0" stop-color="#4338ca"/>
      <stop offset=".17" stop-color="#463ccb"/>
      <stop offset=".36" stop-color="#5048d0"/>
      <stop offset=".54" stop-color="#605dd9"/>
      <stop offset=".73" stop-color="#777ae4"/>
      <stop offset=".91" stop-color="#949ff3"/>
      <stop offset="1" stop-color="#a5b4fc"/>
    </linearGradient>
  </defs>
  <path fill="url(#a)" d="m69.17 59.14-5.29-13.91c-.25-.65-.86-1.09-1.55-1.12H44.4l12.91-29.59C62.96 1.35 57.2 3.26 52 .99 51.33.7 50.64.48 49.95.34c-4.66-.96-9.51 1.43-11.48 5.96L20.66 47.13c-2.27 5.2.11 11.26 5.31 13.53 1.4.61 2.86.88 4.29.86s27.21 0 27.21 0h10.06c1.23 0 2.07-1.23 1.64-2.37Z"/>
  <path fill="url(#b)" d="M62.71 0 47.87.12C53.95.09 56.8 6.27 58.85 12.6l18.91 47.71c.27.67.91 1.11 1.63 1.12l17.84.04c1.26 0 2.1-1.28 1.61-2.44L76.46 6.21C74.18.99 68.1.01 62.71 0Z"/>
  <path className="fill-zinc-50" d="m.38 104.52 10.3-23.05c.72-1.59 2.03-2.55 3.8-2.55h.38c1.77 0 3.04.96 3.76 2.55l10.3 23.05c.21.46.34.88.34 1.3 0 1.72-1.35 3.1-3.08 3.1-1.52 0-2.53-.88-3.12-2.22l-1.98-4.6H8.06l-2.07 4.81c-.55 1.25-1.65 2.01-3 2.01-1.69 0-3-1.34-3-3.01 0-.46.17-.92.38-1.38Zm18.28-8.12-4.09-9.66-4.09 9.66h8.19Zm11.65-2.3v-.08c0-8.33 6.33-15.14 15.41-15.14 4.43 0 7.43 1.17 9.88 2.97.68.5 1.27 1.42 1.27 2.55 0 1.76-1.44 3.14-3.21 3.14-.89 0-1.48-.33-1.94-.63-1.82-1.34-3.71-2.09-6.04-2.09-4.98 0-8.57 4.1-8.57 9.12v.08c0 5.02 3.5 9.2 8.57 9.2 2.74 0 4.56-.84 6.42-2.3.51-.42 1.18-.71 1.94-.71 1.65 0 3.04 1.34 3.04 2.97 0 1-.51 1.8-1.1 2.3-2.66 2.3-5.78 3.68-10.51 3.68-8.7 0-15.15-6.65-15.15-15.06Zm30.77-11.67c0-1.8 1.44-3.22 3.25-3.22h.72c1.39 0 2.36.71 2.95 1.67l7.85 12.68 7.89-12.72c.68-1.09 1.6-1.63 2.91-1.63h.72c1.82 0 3.25 1.42 3.25 3.22v23.26c0 1.8-1.44 3.22-3.25 3.22s-3.21-1.46-3.21-3.22v-14.6l-5.7 8.7c-.68 1-1.52 1.63-2.7 1.63s-2.03-.63-2.7-1.63l-5.61-8.58v14.56c0 1.76-1.44 3.14-3.21 3.14s-3.17-1.38-3.17-3.14V82.43Zm34.96 23.01V82.6c0-1.8 1.44-3.22 3.25-3.22h16.38c1.6 0 2.91 1.3 2.91 2.89s-1.31 2.84-2.91 2.84H102.5v5.94h11.27c1.6 0 2.91 1.3 2.91 2.89s-1.31 2.85-2.91 2.85H102.5v6.15h13.38c1.6 0 2.91 1.3 2.91 2.89s-1.31 2.85-2.91 2.85H99.29c-1.82 0-3.25-1.42-3.25-3.22Z"/>
  <path className="fill-zinc-400 dark:fill-zinc-50" d="M0 124.69v-.05c0-4.54 3.4-8.27 8.24-8.27 2.95 0 4.73 1.03 6.26 2.49l-1.8 2.08c-1.28-1.19-2.65-1.99-4.48-1.99-3.04 0-5.27 2.51-5.27 5.64v.05c0 3.13 2.21 5.66 5.27 5.66 1.96 0 3.22-.78 4.59-2.05l1.8 1.83c-1.67 1.74-3.49 2.83-6.48 2.83-4.66 0-8.13-3.63-8.13-8.22Zm33.28 0v-.05c0-4.5 3.47-8.27 8.38-8.27s8.33 3.72 8.33 8.22v.05c0 4.5-3.47 8.27-8.38 8.27s-8.33-3.72-8.33-8.22Zm13.77 0v-.05c0-3.11-2.26-5.68-5.43-5.68s-5.39 2.53-5.39 5.64v.05c0 3.11 2.26 5.66 5.43 5.66s5.39-2.51 5.39-5.62Zm23.69-8.03h7.12c2.01 0 3.58.59 4.61 1.6.84.87 1.32 2.05 1.32 3.45v.05c0 2.63-1.58 4.2-3.79 4.84l4.32 6.05h-3.33l-3.93-5.57h-3.52v5.57h-2.81v-15.98Zm6.92 7.92c2.01 0 3.29-1.05 3.29-2.67v-.05c0-1.71-1.23-2.65-3.31-2.65h-4.09v5.37h4.11Zm28.76-7.92h6.3c3.74 0 6.07 2.12 6.07 5.34v.05c0 3.58-2.88 5.46-6.39 5.46h-3.17v5.14h-2.81v-15.98Zm6.07 8.31c2.12 0 3.45-1.19 3.45-2.85v-.05c0-1.87-1.35-2.85-3.45-2.85h-3.26v5.75h3.26Z"/>
</svg>
