<?xml version="1.0" standalone="no"?>
<!DOCTYPE svg PUBLIC "-//W3C//DTD SVG 20010904//EN"
 "http://www.w3.org/TR/2001/REC-SVG-20010904/DTD/svg10.dtd">
<svg version="1.0" xmlns="http://www.w3.org/2000/svg"
 width="700.000000pt" height="700.000000pt" viewBox="0 0 700.000000 700.000000"
 preserveAspectRatio="xMidYMid meet">
<metadata>
Created by potrace 1.14, written by Peter Selinger 2001-2017
</metadata>
<g transform="translate(0.000000,700.000000) scale(0.100000,-0.100000)"
fill="#000000" stroke="none">
<path d="M3219 5893 c-8 -1 -174 -4 -369 -6 -195 -3 -368 -8 -385 -11 -185
-42 -313 -111 -436 -236 -85 -86 -120 -146 -214 -360 -42 -96 -88 -199 -101
-228 -13 -29 -24 -55 -24 -58 0 -3 -13 -34 -29 -69 -16 -35 -64 -144 -106
-242 -43 -98 -85 -196 -95 -218 -10 -22 -80 -182 -155 -355 -76 -173 -147
-338 -160 -365 -13 -28 -51 -116 -85 -195 -34 -80 -75 -173 -91 -208 -16 -34
-29 -65 -29 -67 0 -2 -11 -28 -24 -57 -39 -87 -206 -469 -206 -473 0 -2 -13
-32 -30 -67 -41 -87 -198 -452 -221 -513 -38 -103 -53 -265 -34 -382 25 -160
111 -329 225 -443 107 -108 257 -189 412 -222 63 -13 3064 -20 3113 -6 45 12
95 75 95 120 0 22 -36 130 -91 275 -50 131 -122 321 -161 423 -38 102 -73 194
-78 205 -4 11 -29 74 -55 140 -52 135 -70 162 -117 176 -19 5 -325 9 -735 9
l-702 0 24 53 c12 28 40 90 60 137 20 47 43 99 50 115 7 17 68 156 135 310 67
154 208 476 312 715 105 239 194 444 198 455 4 11 21 49 38 85 16 36 49 110
72 165 23 55 53 123 65 150 13 28 35 79 49 115 15 36 31 74 36 85 6 11 21 49
34 85 22 61 25 63 34 40 5 -14 28 -72 50 -130 23 -58 111 -281 196 -496 85
-215 175 -444 201 -510 26 -65 51 -128 56 -139 4 -11 78 -195 163 -410 85
-214 216 -545 291 -735 75 -190 204 -516 287 -725 160 -407 158 -402 181 -455
8 -19 29 -71 46 -116 30 -77 50 -105 98 -131 27 -16 1455 -20 1494 -4 49 18
89 85 82 134 -4 29 -29 96 -62 171 -11 23 -31 70 -46 106 -14 36 -32 79 -39
95 -13 30 -57 131 -81 190 -7 17 -24 57 -38 90 -47 110 -404 951 -493 1165
-25 58 -51 119 -59 135 -7 17 -64 149 -125 295 -61 146 -117 279 -125 295 -19
44 -264 621 -290 685 -20 49 -237 561 -270 635 -7 17 -23 55 -35 85 -12 30
-33 79 -46 108 -13 29 -24 56 -24 60 0 12 -62 125 -91 167 -103 147 -265 248
-487 305 -69 18 -108 24 -270 46 -42 6 -748 12 -783 7z"/>
</g>
</svg>
